<svg width="36" height="36" viewBox="0 0 36 36" fill="none" xmlns="http://www.w3.org/2000/svg">
<path fill-rule="evenodd" clip-rule="evenodd" d="M18 0C8.05888 0 0 8.05888 0 18C0 27.9411 8.05888 36 18 36C27.9411 36 36 27.9411 36 18C36 8.05888 27.9411 0 18 0ZM3.49206 18C3.49206 9.98749 9.98749 3.49206 18 3.49206C26.0125 3.49206 32.5079 9.98749 32.5079 18C32.5079 26.0125 26.0125 32.5079 18 32.5079C9.98749 32.5079 3.49206 26.0125 3.49206 18Z" fill="#355B7F"/>
<path fill-rule="evenodd" clip-rule="evenodd" d="M18 9C18.932 9 19.6875 9.75552 19.6875 10.6875V16.3125H25.3125C26.2445 16.3125 27 17.068 27 18C27 18.932 26.2445 19.6875 25.3125 19.6875H19.6875V25.3125C19.6875 26.2445 18.932 27 18 27C17.068 27 16.3125 26.2445 16.3125 25.3125V19.6875H10.6875C9.75552 19.6875 9 18.932 9 18C9 17.068 9.75552 16.3125 10.6875 16.3125H16.3125V10.6875C16.3125 9.75552 17.068 9 18 9Z" fill="#355B7F"/>
</svg>
