<svg width="20" height="19" viewBox="0 0 20 19" fill="none" xmlns="http://www.w3.org/2000/svg">
<path fill-rule="evenodd" clip-rule="evenodd" d="M10 0.5C10.932 0.5 11.6875 1.25552 11.6875 2.1875V7.8125H17.3125C18.2445 7.8125 19 8.56802 19 9.5C19 10.432 18.2445 11.1875 17.3125 11.1875H11.6875V16.8125C11.6875 17.7445 10.932 18.5 10 18.5C9.06802 18.5 8.3125 17.7445 8.3125 16.8125V11.1875H2.6875C1.75552 11.1875 1 10.432 1 9.5C1 8.56802 1.75552 7.8125 2.6875 7.8125H8.3125V2.1875C8.3125 1.25552 9.06802 0.5 10 0.5Z" stroke="#355B7F" stroke-linecap="round" stroke-linejoin="round"/>
</svg>
