<svg width="32" height="23" viewBox="0 0 32 23" fill="none" xmlns="http://www.w3.org/2000/svg">
<path fill-rule="evenodd" clip-rule="evenodd" d="M32 11.5C32 12.437 31.259 13.1966 30.3448 13.1966H5.65111L12.1886 19.8978C12.835 20.5604 12.835 21.6346 12.1886 22.2972C11.5422 22.9597 10.4942 22.9597 9.84786 22.2972L0.48479 12.6997C0.174384 12.3815 -1.91884e-08 11.95 0 11.5C1.91884e-08 11.05 0.174384 10.6185 0.48479 10.3003L9.84786 0.702798C10.4942 0.0402291 11.5422 0.0402293 12.1886 0.702799C12.835 1.36537 12.835 2.43961 12.1886 3.10217L5.65111 9.80337H30.3448C31.259 9.80337 32 10.563 32 11.5Z" fill="#355B7F"/>
</svg>
