<svg width="26" height="25" viewBox="0 0 26 25" fill="none" xmlns="http://www.w3.org/2000/svg">
<path d="M6.40002 0.5C5.73728 0.5 5.20002 1.03726 5.20002 1.7V3.3H1.60002C0.937283 3.3 0.400024 3.83726 0.400024 4.5C0.400024 5.16274 0.937283 5.7 1.60002 5.7H5.20002V7.3C5.20002 7.96274 5.73728 8.5 6.40002 8.5C7.06277 8.5 7.60002 7.96274 7.60002 7.3V1.7C7.60002 1.03726 7.06277 0.5 6.40002 0.5Z" fill="#FAFAFA"/>
<path d="M24.8 5.7H10V3.3H24.8C25.4628 3.3 26 3.83726 26 4.5C26 5.16274 25.4628 5.7 24.8 5.7Z" fill="#FAFAFA"/>
<path d="M24.8 11.3H19.6V9.7C19.6 9.03726 19.0628 8.5 18.4 8.5C17.7373 8.5 17.2 9.03726 17.2 9.7V15.3C17.2 15.9627 17.7373 16.5 18.4 16.5C19.0628 16.5 19.6 15.9627 19.6 15.3V13.7H24.8C25.4628 13.7 26 13.1627 26 12.5C26 11.8373 25.4628 11.3 24.8 11.3Z" fill="#FAFAFA"/>
<path d="M14.8 11.3H1.60002C0.937283 11.3 0.400024 11.8373 0.400024 12.5C0.400024 13.1627 0.937283 13.7 1.60002 13.7H14.8V11.3Z" fill="#FAFAFA"/>
<path d="M24.8 19.3H17.2V21.7H24.8C25.4628 21.7 26 21.1627 26 20.5C26 19.8373 25.4628 19.3 24.8 19.3Z" fill="#FAFAFA"/>
<path d="M12.4 19.3H1.60002C0.937283 19.3 0.400024 19.8373 0.400024 20.5C0.400024 21.1627 0.937283 21.7 1.60002 21.7H12.4V23.3C12.4 23.9627 12.9373 24.5 13.6 24.5C14.2628 24.5 14.8 23.9627 14.8 23.3V17.7C14.8 17.0373 14.2628 16.5 13.6 16.5C12.9373 16.5 12.4 17.0373 12.4 17.7V19.3Z" fill="#FAFAFA"/>
</svg>
