<svg width="26" height="25" viewBox="0 0 26 25" fill="none" xmlns="http://www.w3.org/2000/svg">
<path d="M6 0.5C5.33726 0.5 4.8 1.03726 4.8 1.7V3.3H1.2C0.537259 3.3 0 3.83726 0 4.5C0 5.16274 0.537259 5.7 1.2 5.7H4.8V7.3C4.8 7.96274 5.33726 8.5 6 8.5C6.66274 8.5 7.2 7.96274 7.2 7.3V1.7C7.2 1.03726 6.66274 0.5 6 0.5Z" fill="#355B7F"/>
<path d="M24.4 5.7H9.6V3.3H24.4C25.0627 3.3 25.6 3.83726 25.6 4.5C25.6 5.16274 25.0627 5.7 24.4 5.7Z" fill="#355B7F"/>
<path d="M24.4 11.3H19.2V9.7C19.2 9.03726 18.6627 8.5 18 8.5C17.3373 8.5 16.8 9.03726 16.8 9.7V15.3C16.8 15.9627 17.3373 16.5 18 16.5C18.6627 16.5 19.2 15.9627 19.2 15.3V13.7H24.4C25.0627 13.7 25.6 13.1627 25.6 12.5C25.6 11.8373 25.0627 11.3 24.4 11.3Z" fill="#355B7F"/>
<path d="M14.4 11.3H1.2C0.537259 11.3 0 11.8373 0 12.5C0 13.1627 0.537259 13.7 1.2 13.7H14.4V11.3Z" fill="#355B7F"/>
<path d="M24.4 19.3H16.8V21.7H24.4C25.0627 21.7 25.6 21.1627 25.6 20.5C25.6 19.8373 25.0627 19.3 24.4 19.3Z" fill="#355B7F"/>
<path d="M12 19.3H1.2C0.537259 19.3 0 19.8373 0 20.5C0 21.1627 0.537259 21.7 1.2 21.7H12V23.3C12 23.9627 12.5373 24.5 13.2 24.5C13.8627 24.5 14.4 23.9627 14.4 23.3V17.7C14.4 17.0373 13.8627 16.5 13.2 16.5C12.5373 16.5 12 17.0373 12 17.7V19.3Z" fill="#355B7F"/>
</svg>
