<svg width="21" height="20" viewBox="0 0 21 20" fill="none" xmlns="http://www.w3.org/2000/svg">
<path d="M7.92 4.9V5.18H8.2H19.3C19.9517 5.18 20.48 4.6517 20.48 4C20.48 3.3483 19.9517 2.82 19.3 2.82H8.2H7.92V3.1V4.9ZM12.08 9.1V8.82H11.8H1.9C1.2483 8.82 0.72 9.3483 0.72 10C0.72 10.6517 1.2483 11.18 1.9 11.18H11.8H12.08V10.9V9.1ZM13.32 16.9V17.18H13.6H19.3C19.9517 17.18 20.48 16.6517 20.48 16C20.48 15.3483 19.9517 14.82 19.3 14.82H13.6H13.32V15.1V16.9ZM5.5 0.72C4.8483 0.72 4.32 1.2483 4.32 1.9V2.82H1.9C1.2483 2.82 0.72 3.3483 0.72 4C0.72 4.6517 1.2483 5.18 1.9 5.18H4.32V6.1C4.32 6.7517 4.8483 7.28 5.5 7.28C6.1517 7.28 6.68 6.7517 6.68 6.1V1.9C6.68 1.2483 6.1517 0.72 5.5 0.72ZM20.48 10C20.48 9.3483 19.9517 8.82 19.3 8.82H15.68V7.9C15.68 7.2483 15.1517 6.72 14.5 6.72C13.8483 6.72 13.32 7.2483 13.32 7.9V12.1C13.32 12.7517 13.8483 13.28 14.5 13.28C15.1517 13.28 15.68 12.7517 15.68 12.1V11.18H19.3C19.9517 11.18 20.48 10.6517 20.48 10ZM9.72 14.82H1.9C1.2483 14.82 0.72 15.3483 0.72 16C0.72 16.6517 1.2483 17.18 1.9 17.18H9.72V18.1C9.72 18.7517 10.2483 19.28 10.9 19.28C11.5517 19.28 12.08 18.7517 12.08 18.1V13.9C12.08 13.2483 11.5517 12.72 10.9 12.72C10.2483 12.72 9.72 13.2483 9.72 13.9V14.82Z" stroke="#355B7F" stroke-width="0.56"/>
</svg>
