<svg width="109" height="27" viewBox="0 0 109 27" fill="none" xmlns="http://www.w3.org/2000/svg">
<path d="M9.66249 26.288C7.74248 26.288 6.05048 25.904 4.58648 25.136C3.14648 24.368 2.01848 23.288 1.20248 21.896C0.410484 20.504 0.0144845 18.896 0.0144845 17.072V9.692C0.0144845 7.868 0.410484 6.272 1.20248 4.904C2.01848 3.512 3.14648 2.432 4.58648 1.664C6.05048 0.895999 7.74248 0.512 9.66249 0.512C11.5585 0.512 13.2385 0.883999 14.7025 1.628C16.1665 2.348 17.2945 3.344 18.0865 4.616C18.9025 5.888 19.3105 7.292 19.3105 8.828V9.008C19.3105 9.128 19.2625 9.236 19.1665 9.332C19.0945 9.404 18.9985 9.44 18.8785 9.44H13.7665C13.6465 9.44 13.5385 9.404 13.4425 9.332C13.3705 9.236 13.3345 9.128 13.3345 9.008C13.3345 8.072 12.9985 7.28 12.3265 6.632C11.6785 5.96 10.7905 5.624 9.66249 5.624C8.55849 5.624 7.67048 5.984 6.99848 6.704C6.32648 7.424 5.99048 8.36 5.99048 9.512V17.252C5.99048 18.404 6.36248 19.34 7.10648 20.06C7.85048 20.78 8.78648 21.14 9.91449 21.14C10.9705 21.14 11.8225 20.864 12.4705 20.312C13.1185 19.736 13.4425 18.944 13.4425 17.936V16.928C13.4425 16.808 13.3825 16.748 13.2625 16.748H9.66249C9.54249 16.748 9.43449 16.712 9.33849 16.64C9.26648 16.544 9.23048 16.436 9.23048 16.316V12.356C9.23048 12.236 9.26648 12.14 9.33849 12.068C9.43449 11.972 9.54249 11.924 9.66249 11.924H18.8785C18.9985 11.924 19.0945 11.972 19.1665 12.068C19.2625 12.14 19.3105 12.236 19.3105 12.356V17.252C19.3105 19.052 18.9025 20.636 18.0865 22.004C17.2945 23.372 16.1665 24.428 14.7025 25.172C13.2625 25.916 11.5825 26.288 9.66249 26.288ZM32.6775 7.1C34.5495 7.1 36.0855 7.7 37.2855 8.9C38.4855 10.076 39.0855 11.684 39.0855 13.724V25.568C39.0855 25.688 39.0375 25.796 38.9415 25.892C38.8695 25.964 38.7735 26 38.6535 26H33.5415C33.4215 26 33.3135 25.964 33.2175 25.892C33.1455 25.796 33.1095 25.688 33.1095 25.568V15.02C33.1095 14.204 32.8815 13.532 32.4255 13.004C31.9695 12.476 31.3815 12.212 30.6615 12.212C29.9175 12.212 29.3175 12.476 28.8615 13.004C28.4055 13.508 28.1775 14.18 28.1775 15.02V25.568C28.1775 25.688 28.1295 25.796 28.0335 25.892C27.9615 25.964 27.8655 26 27.7455 26H22.6335C22.5135 26 22.4055 25.964 22.3095 25.892C22.2375 25.796 22.2015 25.688 22.2015 25.568V1.232C22.2015 1.112 22.2375 1.016 22.3095 0.943999C22.4055 0.847998 22.5135 0.799998 22.6335 0.799998H27.7455C27.8655 0.799998 27.9615 0.847998 28.0335 0.943999C28.1295 1.016 28.1775 1.112 28.1775 1.232V9.152C28.1775 9.248 28.1895 9.308 28.2135 9.332C28.2615 9.332 28.3095 9.296 28.3575 9.224C29.2695 7.808 30.7095 7.1 32.6775 7.1ZM50.4913 26.288C48.3313 26.288 46.4953 25.712 44.9833 24.56C43.4713 23.408 42.4633 21.848 41.9593 19.88C41.6713 18.896 41.5273 17.816 41.5273 16.64C41.5273 15.32 41.6833 14.156 41.9953 13.148C42.5473 11.252 43.5673 9.776 45.0553 8.72C46.5673 7.64 48.3913 7.1 50.5273 7.1C52.6393 7.1 54.4273 7.64 55.8913 8.72C57.3553 9.776 58.3753 11.24 58.9513 13.112C59.2873 14.192 59.4553 15.344 59.4553 16.568C59.4553 17.672 59.3233 18.728 59.0593 19.736C58.5553 21.752 57.5473 23.348 56.0353 24.524C54.5233 25.7 52.6753 26.288 50.4913 26.288ZM50.4913 21.176C51.1873 21.176 51.7633 20.96 52.2193 20.528C52.6753 20.072 53.0113 19.46 53.2273 18.692C53.3713 18.068 53.4433 17.384 53.4433 16.64C53.4433 15.92 53.3593 15.224 53.1913 14.552C52.9993 13.808 52.6753 13.232 52.2193 12.824C51.7633 12.416 51.1873 12.212 50.4913 12.212C49.0993 12.212 48.1873 12.992 47.7553 14.552C47.6113 15.128 47.5393 15.824 47.5393 16.64C47.5393 17.384 47.6113 18.068 47.7553 18.692C47.9473 19.46 48.2713 20.072 48.7273 20.528C49.2073 20.96 49.7953 21.176 50.4913 21.176ZM70.5655 26.288C68.4055 26.288 66.5695 25.712 65.0575 24.56C63.5455 23.408 62.5375 21.848 62.0335 19.88C61.7455 18.896 61.6015 17.816 61.6015 16.64C61.6015 15.32 61.7575 14.156 62.0695 13.148C62.6215 11.252 63.6415 9.776 65.1295 8.72C66.6415 7.64 68.4655 7.1 70.6015 7.1C72.7135 7.1 74.5015 7.64 75.9655 8.72C77.4295 9.776 78.4495 11.24 79.0255 13.112C79.3615 14.192 79.5295 15.344 79.5295 16.568C79.5295 17.672 79.3975 18.728 79.1335 19.736C78.6295 21.752 77.6215 23.348 76.1095 24.524C74.5975 25.7 72.7495 26.288 70.5655 26.288ZM70.5655 21.176C71.2615 21.176 71.8375 20.96 72.2935 20.528C72.7495 20.072 73.0855 19.46 73.3015 18.692C73.4455 18.068 73.5175 17.384 73.5175 16.64C73.5175 15.92 73.4335 15.224 73.2655 14.552C73.0735 13.808 72.7495 13.232 72.2935 12.824C71.8375 12.416 71.2615 12.212 70.5655 12.212C69.1735 12.212 68.2615 12.992 67.8295 14.552C67.6855 15.128 67.6135 15.824 67.6135 16.64C67.6135 17.384 67.6855 18.068 67.8295 18.692C68.0215 19.46 68.3455 20.072 68.8015 20.528C69.2815 20.96 69.8695 21.176 70.5655 21.176ZM82.5397 26C82.4197 26 82.3117 25.964 82.2157 25.892C82.1437 25.796 82.1077 25.688 82.1077 25.568V1.232C82.1077 1.112 82.1437 1.016 82.2157 0.943999C82.3117 0.847998 82.4197 0.799998 82.5397 0.799998H87.6517C87.7717 0.799998 87.8677 0.847998 87.9397 0.943999C88.0357 1.016 88.0837 1.112 88.0837 1.232V25.568C88.0837 25.688 88.0357 25.796 87.9397 25.892C87.8677 25.964 87.7717 26 87.6517 26H82.5397ZM108.317 15.056C108.437 15.776 108.473 16.724 108.425 17.9C108.401 18.188 108.245 18.332 107.957 18.332H96.9765C96.9285 18.332 96.8805 18.356 96.8325 18.404C96.7845 18.428 96.7725 18.464 96.7965 18.512C96.8445 18.776 96.9645 19.124 97.1565 19.556C97.4445 20.06 97.8765 20.468 98.4525 20.78C99.0285 21.092 99.7365 21.248 100.577 21.248C102.089 21.248 103.277 20.756 104.141 19.772C104.237 19.652 104.345 19.592 104.465 19.592C104.585 19.592 104.681 19.64 104.753 19.736L107.525 22.904C107.621 22.976 107.669 23.072 107.669 23.192C107.669 23.288 107.621 23.384 107.525 23.48C106.685 24.392 105.641 25.088 104.393 25.568C103.169 26.048 101.825 26.288 100.361 26.288C98.1765 26.288 96.3165 25.82 94.7805 24.884C93.2685 23.924 92.1765 22.592 91.5045 20.888C91.0005 19.688 90.7485 18.188 90.7485 16.388C90.7485 15.14 90.9405 13.94 91.3245 12.788C91.9485 11.012 92.9685 9.62 94.3845 8.612C95.8245 7.58 97.5285 7.064 99.4965 7.064C101.081 7.064 102.497 7.412 103.745 8.108C104.993 8.78 106.001 9.728 106.769 10.952C107.561 12.152 108.077 13.52 108.317 15.056ZM99.4965 12.212C98.2485 12.212 97.4205 12.8 97.0125 13.976C96.9165 14.24 96.8565 14.492 96.8325 14.732C96.7845 14.852 96.8325 14.912 96.9765 14.912H102.089C102.185 14.912 102.233 14.864 102.233 14.768C102.233 14.576 102.185 14.336 102.089 14.048C101.921 13.448 101.609 12.992 101.153 12.68C100.721 12.368 100.169 12.212 99.4965 12.212Z" fill="#355B7F"/>
</svg>
