<svg width="32" height="33" viewBox="0 0 32 33" fill="none" xmlns="http://www.w3.org/2000/svg">
<path d="M20.0002 3.5002H26.0001C27.6569 3.5002 29 4.84332 29 6.50015V26.4999C29 28.1567 27.6569 29.4998 26.0001 29.4998H20.0002C18.3434 29.4998 17.0002 28.1567 17.0002 26.4999V21.4999H14.0003V26.4999C14.0003 29.8135 16.6865 32.4998 20.0002 32.4998H26.0001C29.3137 32.4998 32 29.8135 32 26.4999V6.50015C32 3.18649 29.3137 0.500244 26.0001 0.500244H20.0002C16.6865 0.500244 14.0003 3.1865 14.0003 6.50015V11.4414H17.0002V6.50015C17.0002 4.84332 18.3434 3.5002 20.0002 3.5002Z" fill="#355B7F"/>
<path d="M8.69459 9.32014C9.28137 9.90592 9.28137 10.8557 8.69459 11.4414L5.13001 14.9999L20.981 14.9999C21.8108 14.9999 22.4835 15.6715 22.4835 16.4999C22.4835 17.3283 21.8108 17.9999 20.981 17.9999H5.13001L9.10323 21.9663C9.69001 22.5521 9.69001 23.5018 9.10323 24.0876C8.51645 24.6733 7.56509 24.6733 6.97831 24.0876L0.440088 17.5605C-0.14669 16.9748 -0.146694 16.025 0.440086 15.4392L6.56967 9.32014C7.15645 8.73436 8.10781 8.73436 8.69459 9.32014Z" fill="#355B7F"/>
</svg>
