<svg width="36" height="36" viewBox="0 0 36 36" fill="none" xmlns="http://www.w3.org/2000/svg">
<path d="M36 18C36 8.05888 27.8722 0 17.8461 0C13.262 0 9.07468 1.68471 5.87965 4.46376C5.79495 4.53743 5.15868 5.14516 5.0822 5.22038V2.05487C5.0822 1.09012 4.29343 0.308029 3.32043 0.308029C2.34743 0.308029 1.55866 1.09012 1.55866 2.05487V9.7345C1.55866 10.6993 2.34743 11.4813 3.32043 11.4813H10.4968C11.4698 11.4813 12.2586 10.6993 12.2586 9.7345C12.2586 8.76975 11.4698 7.98766 10.4968 7.98766H7.27394C7.39636 7.86553 8.02427 7.16836 8.28532 6.94933C10.8355 4.80965 14.2448 3.49207 17.8461 3.49207C25.9271 3.49207 32.4781 9.98749 32.4781 18C32.4781 26.0125 25.9271 32.508 17.8461 32.508C11.0035 32.508 5.25797 27.8508 3.65764 21.559C3.00543 18.9954 -0.440241 19.1498 0.0470169 21.559C1.71303 29.7955 9.04881 36 17.8461 36C27.8722 36 36 27.9411 36 18Z" fill="#355B7F"/>
</svg>
