<svg width="24" height="25" viewBox="0 0 24 25" fill="none" xmlns="http://www.w3.org/2000/svg">
<path fill-rule="evenodd" clip-rule="evenodd" d="M17.6751 10.6787C17.6751 14.8948 14.2836 18.3127 10.1001 18.3127C5.91648 18.3127 2.52502 14.8948 2.52502 10.6787C2.52502 6.46253 5.91648 3.04467 10.1001 3.04467C14.2836 3.04467 17.6751 6.46253 17.6751 10.6787ZM18.1593 16.8146C19.4403 15.1086 20.2001 12.983 20.2001 10.6787C20.2001 5.05715 15.6782 0.5 10.1001 0.5C4.52195 0.5 0 5.05715 0 10.6787C0 16.3002 4.52195 20.8573 10.1001 20.8573C12.4815 20.8573 14.6703 20.0268 16.3971 18.6374L21.8447 24.1273C22.3378 24.6242 23.1372 24.6242 23.6302 24.1273C24.1233 23.6305 24.1233 22.8249 23.6302 22.328L18.1593 16.8146Z" fill="#FAFAFA"/>
</svg>
