<svg width="32" height="35" viewBox="0 0 32 35" fill="none" xmlns="http://www.w3.org/2000/svg">
<path fill-rule="evenodd" clip-rule="evenodd" d="M11.3542 3.37965C11.6288 1.74469 13.0545 0.546359 14.7251 0.546359H17.2749C18.9455 0.546359 20.3712 1.74469 20.6458 3.37965L20.9833 5.38882C22.0996 5.84143 23.1388 6.44118 24.0764 7.16337L26.0008 6.44804C27.5652 5.86655 29.324 6.49244 30.1592 7.9279L31.4342 10.1189C32.2694 11.5544 31.9363 13.3786 30.6466 14.4321L29.061 15.7272C29.1404 16.3075 29.1813 16.8993 29.1813 17.5C29.1813 18.1003 29.1404 18.6919 29.0611 19.2719L30.6484 20.5684C31.9382 21.6219 32.2713 23.4461 31.436 24.8815L30.1611 27.0726C29.3258 28.508 27.567 29.1339 26.0027 28.5524L24.0766 27.8365C23.1389 28.5587 22.0997 29.1585 20.9833 29.6112L20.6458 31.6203C20.3712 33.2553 18.9455 34.4536 17.2749 34.4536H14.7251C13.0545 34.4536 11.6288 33.2553 11.3542 31.6203L11.0167 29.6112C9.90032 29.1585 8.86108 28.5587 7.92336 27.8365L5.99733 28.5524C4.43297 29.1339 2.67419 28.508 1.83892 27.0725L0.564 24.8815C-0.271271 23.4461 0.0618195 21.6219 1.35155 20.5684L2.93885 19.2718C2.8596 18.6918 2.81873 18.1003 2.81873 17.5C2.81873 16.8993 2.85964 16.3075 2.93898 15.7272L1.35338 14.4321C0.0636506 13.3786 -0.269438 11.5544 0.565833 10.1189L1.84075 7.92792C2.67602 6.49246 4.4348 5.86657 5.99917 6.44806L7.92354 7.16338C8.86121 6.44118 9.90039 5.84143 11.0167 5.38882L11.3542 3.37965ZM14.7251 3.4527C14.4864 3.4527 14.2828 3.62389 14.2435 3.85745L13.621 7.56358L12.7812 7.83887C11.4375 8.27932 10.2154 8.98892 9.18026 9.90466L8.52006 10.4887L4.97154 9.16968C4.74806 9.08661 4.49681 9.17602 4.37749 9.38108L3.10257 11.5721C2.98324 11.7772 3.03083 12.0378 3.21507 12.1883L6.1376 14.5754L5.95925 15.4338C5.82086 16.0997 5.7479 16.7906 5.7479 17.5C5.7479 18.2091 5.8208 18.8997 5.95909 19.5655L6.13736 20.4237L3.21324 22.8122C3.029 22.9627 2.98141 23.2233 3.10074 23.4284L4.37565 25.6194C4.49498 25.8244 4.74623 25.9138 4.96971 25.8308L8.51991 24.5111L9.18011 25.0952C10.2153 26.011 11.4374 26.7206 12.7812 27.1611L13.621 27.4364L14.2435 31.1425C14.2828 31.3761 14.4864 31.5473 14.7251 31.5473H17.2749C17.5136 31.5473 17.7172 31.3761 17.7565 31.1425L18.379 27.4364L19.2188 27.1611C20.5626 26.7206 21.7847 26.011 22.8199 25.0952L23.4801 24.5111L27.0303 25.8308C27.2538 25.9139 27.505 25.8245 27.6243 25.6194L28.8993 23.4284C29.0186 23.2233 28.971 22.9627 28.7868 22.8122L25.8626 20.4237L26.0409 19.5655C26.1792 18.8997 26.2521 18.2091 26.2521 17.5C26.2521 16.7906 26.1791 16.0997 26.0408 15.4337L25.8624 14.5754L28.7849 12.1882C28.9692 12.0377 29.0168 11.7771 28.8974 11.5721L27.6225 9.38107C27.5032 9.176 27.2519 9.08659 27.0285 9.16966L23.4799 10.4887L22.8197 9.90465C21.7846 8.98892 20.5625 8.27932 19.2188 7.83887L18.379 7.56358L17.7565 3.85745C17.7172 3.62389 17.5136 3.4527 17.2749 3.4527H14.7251ZM8.67707 17.5C8.67707 13.4872 11.9557 10.2341 16 10.2341C20.0443 10.2341 23.3229 13.4872 23.3229 17.5C23.3229 21.5128 20.0443 24.7658 16 24.7658C11.9557 24.7658 8.67707 21.5128 8.67707 17.5ZM16 13.1405C13.5734 13.1405 11.6062 15.0923 11.6062 17.5C11.6062 19.9077 13.5734 21.8595 16 21.8595C18.4266 21.8595 20.3938 19.9077 20.3938 17.5C20.3938 15.0923 18.4266 13.1405 16 13.1405Z" fill="#355B7F"/>
<path fill-rule="evenodd" clip-rule="evenodd" d="M11.2497 3.3621C11.533 1.67551 13.0034 0.440399 14.7251 0.440399H17.2749C18.9966 0.440399 20.467 1.67551 20.7503 3.3621L21.078 5.31303C22.164 5.75902 23.1769 6.34341 24.0944 7.04364L25.9639 6.34872C27.5762 5.74939 29.3894 6.39426 30.2508 7.8746L31.5257 10.0656C32.3873 11.5463 32.0436 13.4278 30.7136 14.5141L29.1739 15.7718C29.2487 16.3379 29.2872 16.9148 29.2872 17.5C29.2872 18.0848 29.2488 18.6614 29.174 19.2273L30.7155 20.4863C32.0454 21.5726 32.3892 23.4542 31.5276 24.9348L30.2527 27.1258C29.3913 28.6062 27.5781 29.2511 25.9657 28.6517L24.0946 27.9562C23.1771 28.6565 22.1641 29.2409 21.078 29.687L20.7503 31.6379C20.467 33.3245 18.9966 34.5596 17.2749 34.5596H14.7251C13.0034 34.5596 11.533 33.3245 11.2497 31.6379L10.922 29.687C9.83588 29.2409 8.82293 28.6565 7.90537 27.9562L6.03425 28.6517C4.42191 29.251 2.60872 28.6062 1.74733 27.1258L0.472416 24.9348C-0.389159 23.4542 -0.0453853 21.5726 1.28452 20.4863L2.82595 19.2272C2.75125 18.6614 2.71277 18.0848 2.71277 17.5C2.71277 16.9149 2.75129 16.338 2.82607 15.7718L1.28635 14.5141C-0.0435542 13.4279 -0.387326 11.5463 0.474249 10.0656L1.74917 7.87462C2.61056 6.39428 4.42375 5.74941 6.03608 6.34874L7.90555 7.04365C8.82306 6.34341 9.83596 5.75902 10.922 5.31303L11.2497 3.3621ZM14.7251 0.65232C13.1057 0.65232 11.7247 1.81386 11.4587 3.39721L11.1114 5.46477L11.0565 5.48702C9.94919 5.93598 8.91835 6.53092 7.9882 7.24733L7.94167 7.28316L5.96225 6.54738C4.44585 5.98372 2.74148 6.59065 1.93233 7.98121L0.657417 10.1722C-0.151549 11.5625 0.170855 13.3294 1.42041 14.35L3.05201 15.6827L3.04396 15.7416C2.96527 16.3171 2.9247 16.9042 2.9247 17.5C2.9247 18.0955 2.96523 18.6822 3.04384 19.2575L3.05188 19.3163L1.41858 20.6504C0.169024 21.6711 -0.153382 23.438 0.655584 24.8282L1.9305 27.0192C2.73965 28.4098 4.44402 29.0167 5.96041 28.4531L7.94149 27.7167L7.98801 27.7525C8.91822 28.469 9.94912 29.064 11.0565 29.513L11.1114 29.5352L11.4587 31.6028C11.7247 33.1861 13.1057 34.3477 14.7251 34.3477H17.2749C18.8943 34.3477 20.2753 33.1861 20.5413 31.6028L20.8886 29.5352L20.9435 29.513C22.0509 29.064 23.0818 28.469 24.012 27.7525L24.0585 27.7167L26.0396 28.4531C27.556 29.0168 29.2603 28.4098 30.0695 27.0193L31.3444 24.8283C32.1534 23.438 31.831 21.6711 30.5814 20.6505L28.9481 19.3164L28.9562 19.2575C29.0348 18.6823 29.0753 18.0955 29.0753 17.5C29.0753 16.9042 29.0347 16.3171 28.956 15.7416L28.948 15.6827L30.5796 14.35C31.8291 13.3293 32.1515 11.5624 31.3426 10.1722L30.0677 7.98119C29.2585 6.59063 27.5541 5.9837 26.0378 6.54736L24.0583 7.28315L24.0118 7.24731C23.0816 6.53091 22.0508 5.93598 20.9435 5.48702L20.8886 5.46477L20.5413 3.39721C20.2753 1.81386 18.8943 0.65232 17.2749 0.65232H14.7251ZM14.7251 3.55866C14.5376 3.55866 14.3786 3.69306 14.348 3.87501L13.7149 7.64431L12.8142 7.93955C11.4844 8.37544 10.275 9.0777 9.25047 9.98402L8.54269 10.6102L4.93463 9.269C4.75911 9.20376 4.56227 9.2742 4.46907 9.43438L3.19415 11.6254C3.10113 11.7852 3.13803 11.9885 3.28211 12.1062L6.25442 14.534L6.06299 15.4553C5.92607 16.1143 5.85386 16.7979 5.85386 17.5C5.85386 18.2018 5.92601 18.8852 6.06283 19.5439L6.25418 20.4651L3.28027 22.8943C3.1362 23.0119 3.0993 23.2152 3.19232 23.3751L4.46724 25.5661C4.56044 25.7262 4.75728 25.7967 4.93279 25.7315L8.54254 24.3897L9.25032 25.0158C10.2748 25.9222 11.4844 26.6245 12.8142 27.0604L13.7149 27.3557L14.348 31.125C14.3786 31.3069 14.5376 31.4413 14.7251 31.4413H17.2749C17.4624 31.4413 17.6214 31.3069 17.652 31.125L18.2851 27.3557L19.1858 27.0604C20.5156 26.6245 21.7251 25.9222 22.7497 25.0158L23.4574 24.3897L27.0672 25.7315C27.2427 25.7967 27.4396 25.7263 27.5328 25.5661L28.8077 23.3751C28.9007 23.2152 28.8638 23.012 28.7197 22.8943L25.7458 20.4651L25.9372 19.5439C26.074 18.8852 26.1461 18.2018 26.1461 17.5C26.1461 16.7979 26.0739 16.1142 25.937 15.4553L25.7456 14.534L28.7179 12.1062C28.862 11.9885 28.8989 11.7852 28.8058 11.6254L27.5309 9.43436C27.4377 9.27419 27.2409 9.20374 27.0654 9.26898L23.4573 10.6102L22.7495 9.98401C21.725 9.07769 20.5156 8.37544 19.1858 7.93955L18.2851 7.64431L17.652 3.875C17.6214 3.69306 17.4624 3.55866 17.2749 3.55866H14.7251ZM14.139 3.8399C14.1869 3.55471 14.4353 3.34674 14.7251 3.34674H17.2749C17.5647 3.34674 17.8131 3.55472 17.861 3.8399L18.4729 7.48284L19.2518 7.73818C20.6095 8.1832 21.8442 8.90015 22.8899 9.82529L23.5026 10.3672L26.9915 9.07034C27.263 8.96944 27.5687 9.07782 27.7141 9.32778L28.989 11.5188C29.1346 11.7691 29.0764 12.087 28.852 12.2703L25.9792 14.6168L26.1445 15.4122C26.2843 16.0852 26.3581 16.7834 26.3581 17.5C26.3581 18.2164 26.2844 18.9142 26.1447 19.587L25.9795 20.3824L28.8538 22.7302C29.0782 22.9135 29.1365 23.2314 28.9908 23.4817L27.7159 25.6727C27.5705 25.9226 27.2648 26.031 26.9934 25.9301L23.5027 24.6326L22.8901 25.1746C21.8443 26.0998 20.6095 26.8168 19.2518 27.2618L18.4729 27.5171L17.861 31.1601C17.8131 31.4453 17.5647 31.6532 17.2749 31.6532H14.7251C14.4353 31.6532 14.1869 31.4453 14.139 31.1601L13.5271 27.5171L12.7482 27.2618C11.3905 26.8168 10.1557 26.0998 9.1099 25.1745L8.49728 24.6326L5.00663 25.9301C4.73518 26.031 4.42952 25.9226 4.28407 25.6727L3.00915 23.4817C2.86352 23.2314 2.92179 22.9134 3.14621 22.7301L6.02054 20.3823L5.85534 19.587C5.71559 18.9142 5.64194 18.2163 5.64194 17.5C5.64194 16.7834 5.71565 16.0852 5.8555 15.4122L6.02078 14.6168L3.14804 12.2703C2.92362 12.087 2.86535 11.7691 3.01098 11.5188L4.2859 9.32779C4.43135 9.07784 4.73701 8.96945 5.00846 9.07036L8.49743 10.3673L9.11005 9.8253C10.1558 8.90015 11.3905 8.18321 12.7482 7.73818L13.5271 7.48284L14.139 3.8399ZM8.57111 17.5C8.57111 13.4279 11.8979 10.1282 16 10.1282C20.1021 10.1282 23.4289 13.4279 23.4289 17.5C23.4289 21.5721 20.1021 24.8718 16 24.8718C11.8979 24.8718 8.57111 21.5721 8.57111 17.5ZM16 10.3401C12.0134 10.3401 8.78303 13.5465 8.78303 17.5C8.78303 21.4535 12.0134 24.6599 16 24.6599C19.9866 24.6599 23.217 21.4535 23.217 17.5C23.217 13.5465 19.9866 10.3401 16 10.3401ZM16 13.2464C13.6311 13.2464 11.7122 15.1516 11.7122 17.5C11.7122 19.8484 13.6311 21.7535 16 21.7535C18.3689 21.7535 20.2878 19.8484 20.2878 17.5C20.2878 15.1516 18.3689 13.2464 16 13.2464ZM11.5003 17.5C11.5003 15.033 13.5157 13.0345 16 13.0345C18.4843 13.0345 20.4997 15.033 20.4997 17.5C20.4997 19.967 18.4843 21.9655 16 21.9655C13.5157 21.9655 11.5003 19.967 11.5003 17.5Z" fill="#355B7F"/>
</svg>
