<svg width="17" height="17" viewBox="0 0 17 17" fill="none" xmlns="http://www.w3.org/2000/svg">
<path fill-rule="evenodd" clip-rule="evenodd" d="M6.3245 1.93795C6.45328 1.17124 7.12185 0.60929 7.90525 0.60929H9.10098C9.88437 0.60929 10.5529 1.17124 10.6817 1.93795L10.84 2.88014C11.3635 3.09238 11.8508 3.37363 12.2905 3.7123L13.1929 3.37685C13.9265 3.10416 14.7513 3.39767 15.143 4.07082L15.7409 5.09828C16.1326 5.77143 15.9764 6.62689 15.3716 7.12091L14.628 7.72826C14.6652 8.00039 14.6844 8.27793 14.6844 8.5596C14.6844 8.84113 14.6652 9.11852 14.6281 9.39051L15.3724 9.99852C15.9772 10.4925 16.1334 11.348 15.7417 12.0211L15.1439 13.0486C14.7522 13.7218 13.9274 14.0153 13.1938 13.7426L12.2906 13.4068C11.8509 13.7455 11.3635 14.0268 10.84 14.2391L10.6817 15.1813C10.5529 15.948 9.88437 16.5099 9.10098 16.5099H7.90525C7.12185 16.5099 6.45328 15.948 6.3245 15.1813L6.16623 14.2391C5.6427 14.0268 5.15535 13.7455 4.71561 13.4068L3.81242 13.7426C3.07881 14.0153 2.25405 13.7217 1.86235 13.0486L1.26448 12.0211C0.872789 11.348 1.02899 10.4925 1.6338 9.99851L2.37816 9.3905C2.34099 9.11852 2.32183 8.84112 2.32183 8.5596C2.32183 8.27793 2.34101 8.00039 2.37822 7.72827L1.63466 7.12092C1.02985 6.6269 0.873649 5.77144 1.26534 5.09829L1.86321 4.07083C2.25491 3.39768 3.07968 3.10417 3.81328 3.37686L4.7157 3.7123C5.15542 3.37364 5.64273 3.09238 6.16623 2.88014L6.3245 1.93795ZM7.90525 1.9722C7.79333 1.9722 7.69782 2.05248 7.67942 2.16201L7.38749 3.89998L6.99366 4.02907C6.36354 4.23562 5.79045 4.56838 5.30503 4.99781L4.99544 5.2717L3.33138 4.65315C3.22658 4.61419 3.10875 4.65612 3.0528 4.75229L2.45493 5.77975C2.39898 5.87591 2.42129 5.99812 2.50769 6.06869L3.87819 7.18814L3.79456 7.59065C3.72966 7.90296 3.69545 8.22696 3.69545 8.5596C3.69545 8.89212 3.72963 9.21599 3.79448 9.52819L3.87808 9.93068L2.50683 11.0507C2.42043 11.1213 2.39812 11.2435 2.45407 11.3397L3.05194 12.3671C3.1079 12.4633 3.22572 12.5052 3.33052 12.4663L4.99537 11.8474L5.30496 12.1213C5.7904 12.5508 6.36351 12.8836 6.99366 13.0901L7.38749 13.2192L7.67942 14.9572C7.69782 15.0667 7.79333 15.147 7.90525 15.147H9.10098C9.21289 15.147 9.3084 15.0667 9.3268 14.9572L9.61873 13.2192L10.0126 13.0901C10.6427 12.8836 11.2158 12.5508 11.7013 12.1213L12.0109 11.8474L13.6757 12.4663C13.7805 12.5052 13.8983 12.4633 13.9543 12.3671L14.5522 11.3397C14.6081 11.2435 14.5858 11.1213 14.4994 11.0507L13.1281 9.93068L13.2117 9.5282C13.2766 9.216 13.3108 8.89212 13.3108 8.5596C13.3108 8.22696 13.2766 7.90296 13.2117 7.59064L13.128 7.18813L14.4985 6.06868C14.5849 5.99811 14.6072 5.8759 14.5513 5.77974L13.9534 4.75228C13.8975 4.65611 13.7796 4.61418 13.6748 4.65314L12.0108 5.27169L11.7012 4.99781C11.2158 4.56838 10.6427 4.23562 10.0126 4.02907L9.61873 3.89998L9.3268 2.16201C9.3084 2.05248 9.21289 1.9722 9.10098 1.9722H7.90525ZM5.06907 8.5596C5.06907 6.67781 6.60654 5.15233 8.50311 5.15233C10.3997 5.15233 11.9372 6.67781 11.9372 8.5596C11.9372 10.4414 10.3997 11.9669 8.50311 11.9669C6.60654 11.9669 5.06907 10.4414 5.06907 8.5596ZM8.50311 6.51524C7.36517 6.51524 6.44268 7.43053 6.44268 8.5596C6.44268 9.68867 7.36517 10.604 8.50311 10.604C9.64105 10.604 10.5635 9.68867 10.5635 8.5596C10.5635 7.43053 9.64105 6.51524 8.50311 6.51524Z" stroke="#355B7F" stroke-width="0.4"/>
<path fill-rule="evenodd" clip-rule="evenodd" d="M6.27549 1.92972C6.40835 1.1388 7.09787 0.559601 7.90525 0.559601H9.10098C9.90835 0.559601 10.5979 1.1388 10.7307 1.92972L10.8844 2.84459C11.3937 3.05374 11.8687 3.32778 12.2989 3.65615L13.1756 3.33028C13.9317 3.04923 14.782 3.35163 15.186 4.04583L15.7838 5.07329C16.1879 5.76764 16.0266 6.64999 15.403 7.15939L14.681 7.74917C14.716 8.01467 14.7341 8.2852 14.7341 8.5596C14.7341 8.83385 14.716 9.10424 14.681 9.3696L15.4039 9.96003C16.0275 10.4694 16.1887 11.3518 15.7847 12.0461L15.1868 13.0736C14.7829 13.7678 13.9326 14.0702 13.1765 13.7891L12.299 13.463C11.8688 13.7914 11.3937 14.0655 10.8844 14.2746L10.7307 15.1895C10.5979 15.9804 9.90835 16.5596 9.10098 16.5596H7.90525C7.09787 16.5596 6.40835 15.9804 6.27549 15.1895L6.12182 14.2746C5.61248 14.0655 5.13746 13.7914 4.70718 13.463L3.82973 13.7891C3.07363 14.0702 2.22335 13.7678 1.8194 13.0736L1.22154 12.0461C0.817506 11.3518 0.978717 10.4694 1.60237 9.96002L2.32521 9.36959C2.29018 9.10424 2.27214 8.83385 2.27214 8.5596C2.27214 8.2852 2.2902 8.01467 2.32527 7.74918L1.60323 7.1594C0.979575 6.64999 0.818365 5.76765 1.2224 5.0733L1.82026 4.04584C2.22421 3.35164 3.07449 3.04923 3.83059 3.33029L4.70727 3.65616C5.13753 3.32779 5.61252 3.05374 6.12182 2.84459L6.27549 1.92972ZM7.90525 0.65898C7.14584 0.65898 6.49822 1.20368 6.3735 1.94618L6.21063 2.91575L6.1849 2.92619C5.66562 3.13672 5.18221 3.41572 4.74602 3.75167L4.7242 3.76848L3.79596 3.42344C3.08486 3.15911 2.2856 3.44372 1.90616 4.09582L1.30829 5.12328C0.928932 5.77523 1.08012 6.6038 1.66609 7.08244L2.43122 7.7074L2.42745 7.735C2.39055 8.0049 2.37152 8.28019 2.37152 8.5596C2.37152 8.83886 2.39053 9.11401 2.42739 9.38378L2.43116 9.41137L1.66523 10.037C1.07926 10.5156 0.928072 11.3442 1.30743 11.9961L1.9053 13.0236C2.28474 13.6757 3.084 13.9603 3.7951 13.696L4.72412 13.3507L4.74594 13.3675C5.18215 13.7035 5.66559 13.9825 6.1849 14.193L6.21063 14.2035L6.3735 15.173C6.49822 15.9155 7.14584 16.4602 7.90525 16.4602H9.10098C9.86038 16.4602 10.508 15.9155 10.6327 15.173L10.7956 14.2035L10.8213 14.193C11.3406 13.9825 11.8241 13.7035 12.2603 13.3675L12.2821 13.3507L13.2111 13.696C13.9222 13.9603 14.7215 13.6757 15.1009 13.0236L15.6988 11.9962C16.0781 11.3442 15.927 10.5156 15.341 10.037L14.5751 9.41138L14.5788 9.38378C14.6157 9.11402 14.6347 8.83887 14.6347 8.5596C14.6347 8.28019 14.6157 8.00489 14.5788 7.73499L14.575 7.7074L15.3401 7.08243C15.9261 6.6038 16.0773 5.77522 15.6979 5.12327L15.1001 4.09581C14.7206 3.44372 13.9214 3.1591 13.2103 3.42343L12.282 3.76847L12.2602 3.75167C11.824 3.41571 11.3406 3.13672 10.8213 2.92619L10.7956 2.91575L10.6327 1.94618C10.508 1.20368 9.86038 0.65898 9.10098 0.65898H7.90525ZM7.90525 2.02189C7.81732 2.02189 7.74276 2.08492 7.72843 2.17024L7.43151 3.93783L7.00914 4.07629C6.38556 4.28069 5.81839 4.61001 5.33796 5.03503L5.00605 5.32866L3.31407 4.69972C3.23176 4.66913 3.13945 4.70216 3.09575 4.77728L2.49788 5.80474C2.45426 5.8797 2.47156 5.97502 2.53913 6.03021L3.93298 7.16873L3.84321 7.60076C3.779 7.90977 3.74514 8.23038 3.74514 8.5596C3.74514 8.8887 3.77897 9.20919 3.84313 9.51809L3.93286 9.95009L2.53827 11.0892C2.4707 11.1444 2.4534 11.2397 2.49702 11.3147L3.09489 12.3421C3.13859 12.4173 3.2309 12.4503 3.31321 12.4197L5.00598 11.7905L5.33789 12.0841C5.81833 12.5092 6.38553 12.8385 7.00914 13.0429L7.43151 13.1814L7.72843 14.949C7.74276 15.0343 7.81732 15.0973 7.90525 15.0973H9.10098C9.1889 15.0973 9.26346 15.0343 9.2778 14.949L9.57471 13.1814L9.99709 13.0429C10.6207 12.8385 11.1879 12.5092 11.6683 12.0841L12.0002 11.7905L13.693 12.4197C13.7753 12.4503 13.8676 12.4173 13.9113 12.3422L14.5092 11.3147C14.5528 11.2397 14.5355 11.1444 14.468 11.0892L13.0734 9.95009L13.1631 9.51809C13.2273 9.2092 13.2611 8.8887 13.2611 8.5596C13.2611 8.23037 13.2272 7.90976 13.163 7.60075L13.0732 7.16872L14.4671 6.0302C14.5347 5.97502 14.552 5.8797 14.5083 5.80473L13.9105 4.77727C13.8668 4.70216 13.7745 4.66912 13.6922 4.69971L12.0002 5.32865L11.6683 5.03503C11.1878 4.61001 10.6207 4.28069 9.99709 4.07629L9.57471 3.93783L9.2778 2.17024C9.26346 2.08492 9.1889 2.02189 9.10098 2.02189H7.90525ZM7.63042 2.15378C7.65289 2.02004 7.76935 1.92251 7.90525 1.92251H9.10098C9.23688 1.92251 9.35334 2.02004 9.3758 2.15378L9.66276 3.86212L10.028 3.98185C10.6647 4.19055 11.2437 4.52675 11.7341 4.96059L12.0214 5.21474L13.6575 4.60656C13.7848 4.55925 13.9282 4.61007 13.9964 4.72729L14.5942 5.75475C14.6625 5.87211 14.6352 6.02121 14.53 6.10717L13.1828 7.20754L13.2603 7.58054C13.3259 7.89615 13.3605 8.22354 13.3605 8.5596C13.3605 8.89554 13.3259 9.2228 13.2604 9.5383L13.1829 9.91127L14.5308 11.0123C14.6361 11.0982 14.6634 11.2473 14.5951 11.3647L13.9972 12.3921C13.929 12.5094 13.7857 12.5602 13.6584 12.5129L12.0215 11.9044L11.7342 12.1585C11.2438 12.5924 10.6647 12.9286 10.028 13.1374L9.66276 13.2571L9.3758 14.9654C9.35334 15.0992 9.23688 15.1967 9.10098 15.1967H7.90525C7.76935 15.1967 7.65289 15.0992 7.63042 14.9654L7.34346 13.2571L6.97818 13.1374C6.34149 12.9286 5.76246 12.5924 5.27204 12.1585L4.98475 11.9044L3.34783 12.5129C3.22054 12.5602 3.0772 12.5093 3.00899 12.3921L2.41113 11.3647C2.34283 11.2473 2.37016 11.0982 2.4754 11.0122L3.8233 9.91126L3.74583 9.5383C3.6803 9.22279 3.64576 8.89553 3.64576 8.5596C3.64576 8.22354 3.68032 7.89616 3.74591 7.58054L3.82341 7.20755L2.47626 6.10718C2.37102 6.02121 2.34369 5.87212 2.41198 5.75476L3.00985 4.72729C3.07806 4.61008 3.2214 4.55925 3.34869 4.60657L4.98482 5.21475L5.27211 4.9606C5.76252 4.52675 6.34152 4.19055 6.97818 3.98185L7.34346 3.86212L7.63042 2.15378ZM5.01938 8.5596C5.01938 6.65001 6.57947 5.10264 8.50311 5.10264C10.4268 5.10264 11.9868 6.65001 11.9868 8.5596C11.9868 10.4692 10.4268 12.0166 8.50311 12.0166C6.57947 12.0166 5.01938 10.4692 5.01938 8.5596ZM8.50311 5.20201C6.63362 5.20201 5.11876 6.70562 5.11876 8.5596C5.11876 10.4136 6.63362 11.9172 8.50311 11.9172C10.3726 11.9172 11.8875 10.4136 11.8875 8.5596C11.8875 6.70562 10.3726 5.20201 8.50311 5.20201ZM8.50311 6.56493C7.39224 6.56493 6.49237 7.45834 6.49237 8.5596C6.49237 9.66087 7.39224 10.5543 8.50311 10.5543C9.61398 10.5543 10.5138 9.66087 10.5138 8.5596C10.5138 7.45834 9.61398 6.56493 8.50311 6.56493ZM6.39299 8.5596C6.39299 7.40272 7.33809 6.46555 8.50311 6.46555C9.66813 6.46555 10.6132 7.40272 10.6132 8.5596C10.6132 9.71648 9.66813 10.6537 8.50311 10.6537C7.33809 10.6537 6.39299 9.71648 6.39299 8.5596Z" stroke="#355B7F" stroke-width="0.4"/>
</svg>
