<svg width="13" height="18" viewBox="0 0 13 18" fill="none" xmlns="http://www.w3.org/2000/svg">
<path fill-rule="evenodd" clip-rule="evenodd" d="M6.19995 17.5C5.70216 17.5 5.29862 17.1063 5.29862 16.6207L5.29862 3.50215L1.73861 6.97521C1.38662 7.3186 0.815933 7.3186 0.463943 6.97521C0.111954 6.63182 0.111954 6.07507 0.463943 5.73167L5.56262 0.757544C5.73165 0.592641 5.9609 0.5 6.19995 0.5C6.439 0.5 6.66825 0.592641 6.83729 0.757545L11.936 5.73168C12.2879 6.07507 12.2879 6.63182 11.936 6.97521C11.584 7.3186 11.0133 7.3186 10.6613 6.97521L7.10128 3.50215L7.10128 16.6207C7.10128 17.1063 6.69774 17.5 6.19995 17.5Z" fill="#355B7F"/>
</svg>
