<svg width="12" height="17" viewBox="0 0 12 17" fill="none" xmlns="http://www.w3.org/2000/svg">
<path fill-rule="evenodd" clip-rule="evenodd" d="M6 4.76837e-07C5.50221 4.98065e-07 5.09867 0.393681 5.09867 0.87931L5.09867 13.9978L1.53866 10.5248C1.18667 10.1814 0.615982 10.1814 0.263993 10.5248C-0.0879976 10.8682 -0.0879976 11.4249 0.263993 11.7683L5.36267 16.7425C5.5317 16.9074 5.76095 17 6 17C6.23905 17 6.4683 16.9074 6.63733 16.7425L11.736 11.7683C12.088 11.4249 12.088 10.8682 11.736 10.5248C11.384 10.1814 10.8133 10.1814 10.4613 10.5248L6.90133 13.9978L6.90133 0.87931C6.90133 0.393681 6.49779 4.5561e-07 6 4.76837e-07Z" fill="#355B7F"/>
</svg>
